<?xml version="1.0" standalone="no"?><!DOCTYPE svg PUBLIC "-//W3C//DTD SVG 1.1//EN" "http://www.w3.org/Graphics/SVG/1.1/DTD/svg11.dtd"><svg t="1510365775273" class="icon" style="" viewBox="0 0 1024 1024" version="1.1" xmlns="http://www.w3.org/2000/svg" p-id="5123" xmlns:xlink="http://www.w3.org/1999/xlink" width="200" height="200"><defs><style type="text/css"></style></defs><path d="M704 732.8c51.2 0 96-41.6 96-96V224c0-51.2-41.6-96-96-96H156.8c-51.2 0-96 41.6-96 96v412.8c0 51.2 41.6 96 96 96H192v160c0 12.8 9.6 25.6 22.4 32H224c9.6 0 19.2-3.2 25.6-12.8l131.2-179.2H704zM233.6 672c-3.2-3.2-9.6-3.2-12.8-3.2h-64c-16 0-32-12.8-32-32V224c0-16 12.8-32 32-32H704c16 0 32 12.8 32 32v412.8c0 16-12.8 32-32 32H364.8 355.2c-3.2 3.2-3.2 3.2-6.4 3.2s-3.2 3.2-6.4 3.2l-3.2 3.2s-3.2 0-3.2 3.2L256 796.8V704c0-16-9.6-25.6-22.4-32z" fill="#666666" p-id="5124"></path><path d="M864 252.8c-19.2 0-32 12.8-32 32s16 32 32 32 32 12.8 32 32v348.8c0 19.2-16 25.6-32 25.6h-32c-19.2 0-32 12.8-32 32v3.2c0 3.2-3.2 6.4-3.2 9.6v60.8l-73.6-57.6c-3.2-3.2-9.6-3.2-16-3.2H544c-19.2 0-32 12.8-32 32s12.8 32 32 32h153.6l115.2 89.6c6.4 3.2 12.8 6.4 19.2 6.4 3.2 0 9.6 0 12.8-3.2 9.6-6.4 19.2-16 19.2-28.8v-108.8c54.4 0 96-38.4 96-89.6V348.8c0-51.2-44.8-96-96-96z" fill="#666666" p-id="5125"></path></svg>