<?xml version="1.0" standalone="no"?><!DOCTYPE svg PUBLIC "-//W3C//DTD SVG 1.1//EN" "http://www.w3.org/Graphics/SVG/1.1/DTD/svg11.dtd"><svg t="1508036090779" class="icon" style="" viewBox="0 0 1024 1024" version="1.1" xmlns="http://www.w3.org/2000/svg" p-id="1061" xmlns:xlink="http://www.w3.org/1999/xlink" width="200" height="200"><defs><style type="text/css"></style></defs><path d="M510.7 511.6m-448.1 0a448.1 448.1 0 1 0 896.2 0 448.1 448.1 0 1 0-896.2 0Z" fill="#AADCDA" p-id="1062"></path><path d="M773.7 753.2c0 44-117.2 79.7-261.7 79.7-144.6 0-261.7-35.7-261.7-79.7s117.2-79.7 261.7-79.7 261.7 35.7 261.7 79.7z" fill="#58595B" p-id="1063"></path><path d="M652.4 335.7c0 79.4-64.4 143.8-143.7 143.8-79.4 0-143.7-64.4-143.7-143.8S429.4 192 508.7 192c79.3-0.1 143.7 64.3 143.7 143.7z" fill="#C1A367" p-id="1064"></path><path d="M508.6 464.1c-76.9 0-139.5-60.4-143.4-136.3-0.1 2.5-0.4 5-0.4 7.5 0 79.4 64.4 143.8 143.7 143.8 79.4 0 143.7-64.4 143.7-143.8 0-2.5-0.2-5-0.4-7.5-3.7 75.9-66.3 136.3-143.2 136.3z" fill="#3E67A6" p-id="1065"></path><path d="M731.7 439.1c-14.9-28.8-50.3-40-79.1-25.1l-101.2 52.9c-8.9-13.9-24.5-23-42.2-23-17.7 0-33.2 9.2-42.2 23L365.9 414c-28.8-14.9-64.2-3.7-79.1 25.1-14.9 28.8-3.7 64.2 25.1 79.1l106.9 55.9c28.8 14.9 64.2 3.7 79.1-25.1 1-1.8 1.8-3.7 2.5-5.6 2.9 0.5 5.8 0.8 8.8 0.8 3 0 5.9-0.3 8.8-0.8 0.8 1.9 1.6 3.8 2.5 5.6 14.9 28.8 50.3 40 79.1 25.1l106.9-55.9c28.9-14.9 40.1-50.3 25.2-79.1z" fill="#C1A367" p-id="1066"></path><path d="M706.6 503.2l-106.9 55.9c-28.8 14.9-64.2 3.7-79.1-25.1-1-1.8-1.8-3.7-2.5-5.6-2.9 0.5-5.8 0.8-8.8 0.8-3 0-6-0.3-8.8-0.8-0.7 1.9-1.6 3.8-2.5 5.6-14.9 28.8-50.3 40-79.1 25.1L312 503.2c-17.7-9.2-28.7-26.1-31.2-44.5-3 23.7 8.7 47.8 31.2 59.5l106.9 55.9c28.8 14.9 64.2 3.7 79.1-25.1 1-1.8 1.8-3.7 2.5-5.6 2.9 0.5 5.8 0.8 8.8 0.8 3 0 5.9-0.3 8.8-0.8 0.8 1.9 1.6 3.8 2.5 5.6 14.9 28.8 50.3 40 79.1 25.1l106.9-55.9c22.5-11.6 34.2-35.8 31.2-59.5-2.4 18.4-13.5 35.4-31.2 44.5z" fill="#3E67A6" p-id="1067"></path><path d="M711 684.9L566.4 523.8c-14.9-16.5-36.8-23-57.1-19.2-20.4-3.8-42.2 2.7-57.2 19.2L307.6 684.9c-22.8 25.3-20.8 64.3 4.5 87.2 25.3 22.8 64.3 20.8 87.1-4.5 0 0 75.9-94.4 110.1-94.4 34.2 0 110.1 94.4 110.1 94.4 22.8 25.3 61.8 27.3 87.1 4.5 25.3-22.9 27.3-61.9 4.5-87.2z" fill="#C1A367" p-id="1068"></path><path d="M706.5 757.1c-25.3 22.8-64.3 20.8-87.1-4.5 0 0-75.9-94.4-110.1-94.4-34.2 0-110.1 94.4-110.1 94.4-22.8 25.3-61.8 27.3-87.1 4.5-11.5-10.4-18.1-24.1-19.9-38.4-2.4 19.3 4.3 39.3 19.9 53.4 25.3 22.8 64.3 20.8 87.1-4.5 0 0 75.9-94.4 110.1-94.4 34.2 0 110.1 94.4 110.1 94.4 22.8 25.3 61.8 27.3 87.1 4.5 15.5-14 22.2-34.1 19.9-53.4-1.7 14.3-8.3 28-19.9 38.4z" fill="#3E67A6" p-id="1069"></path><path d="M418 745.5c3.7-4.1 7.8-8.6 12.1-13.3-28.8-51.7-73.7-66.6-101.6-70.6l-13.9 15.5c21.3 0.8 73.3 9 103.4 68.4zM600.6 745.5c30.1-59.5 82-67.7 103.4-68.4l-13.9-15.5c-27.9 4-72.8 18.9-101.6 70.6 4.3 4.7 8.4 9.2 12.1 13.3zM386.5 424.8c-1.5 22.9-11.6 69.6-65.4 98.2l17.8 9.3c46.9-29.5 60.1-72.7 63.6-99.2l-16-8.3zM632.1 424.8l-16 8.4c3.5 26.5 16.7 69.7 63.6 99.2l17.8-9.3c-53.8-28.8-63.9-75.5-65.4-98.3z" fill="#3E67A6" p-id="1070"></path><path d="M466.3 332c0 9.4-7.6 17-17 17s-17-7.6-17-17 7.6-17 17-17 17 7.6 17 17zM579.6 332c0 9.4-7.6 17-17 17s-17-7.6-17-17 7.6-17 17-17 17 7.6 17 17z" fill="#F3F4F5" p-id="1071"></path><path d="M551.2 441.4c-7.9 0-21.2 7.6-29.1 16-3.4-3.7-8.2-6.1-13.6-6.1s-10.2 2.4-13.6 6.1c-7.9-8.5-21.2-16-29.1-16-11.7 0-14 16.6-14 28.3s2.3 28.3 14 28.3c7.9 0 21.2-7.6 29.1-16 3.4 3.7 8.2 6.1 13.6 6.1s10.2-2.4 13.6-6.1c7.9 8.5 21.2 16 29.1 16 11.7 0 14-16.6 14-28.3 0-11.6-2.3-28.3-14-28.3z" fill="#F48B8C" p-id="1072"></path><path d="M466.9 450.5c7.7 0 20.7 7 28.4 14.8 3.3-3.4 8-5.6 13.3-5.6 5.3 0 10 2.2 13.3 5.6 7.7-7.8 20.8-14.8 28.4-14.8 10.3 0 13.1 12.4 13.6 22.8 0.1-1.1 0.1-2.2 0.1-3.3 0-10.8-2.2-26.1-13.7-26.1-7.7 0-20.7 7-28.4 14.8-3.3-3.4-8-5.6-13.3-5.6-5.3 0-10 2.2-13.3 5.6-7.7-7.8-20.8-14.8-28.4-14.8-11.4 0-13.7 15.3-13.7 26.1 0 1.1 0 2.2 0.1 3.3 0.5-10.3 3.3-22.8 13.6-22.8z" fill="#F48B8C" p-id="1073"></path><path d="M466.9 489.1c7.7 0 20.7-7 28.4-14.8 3.3 3.4 8 5.6 13.3 5.6 5.3 0 10-2.2 13.3-5.6 7.7 7.8 20.8 14.8 28.4 14.8 10.3 0 13.1-12.5 13.6-22.8 0.1 1.1 0.1 2.3 0.1 3.3 0 10.8-2.2 26.1-13.7 26.1-7.7 0-20.7-7-28.4-14.8-3.3 3.4-8 5.6-13.3 5.6-5.3 0-10-2.2-13.3-5.6-7.7 7.8-20.8 14.8-28.4 14.8-11.4 0-13.7-15.3-13.7-26.1 0-1.1 0-2.2 0.1-3.3 0.5 10.3 3.3 22.8 13.6 22.8z" fill="#F48B8C" p-id="1074"></path><path d="M524.2 531.8c0 8.5-6.9 15.4-15.4 15.4s-15.4-6.9-15.4-15.4 6.9-15.4 15.4-15.4c8.5-0.1 15.4 6.8 15.4 15.4zM524.2 588.4c0 8.5-6.9 15.4-15.4 15.4s-15.4-6.9-15.4-15.4 6.9-15.4 15.4-15.4 15.4 6.9 15.4 15.4zM508.6 404.7c-24.2 0-41.8-17.3-42.6-18-3.3-3.3-3.3-8.7 0-12 3.3-3.3 8.7-3.3 12 0 0.3 0.3 13.6 13.1 30.5 13.1 17 0 30.4-13 30.6-13.1 3.3-3.3 8.7-3.3 12 0.1 3.3 3.3 3.3 8.7 0 12-0.7 0.6-18.3 17.9-42.5 17.9z" fill="#F3F4F5" p-id="1075"></path></svg>