<?xml version="1.0" standalone="no"?><!DOCTYPE svg PUBLIC "-//W3C//DTD SVG 1.1//EN" "http://www.w3.org/Graphics/SVG/1.1/DTD/svg11.dtd"><svg t="1508038011432" class="icon" style="" viewBox="0 0 1024 1024" version="1.1" xmlns="http://www.w3.org/2000/svg" p-id="1788" xmlns:xlink="http://www.w3.org/1999/xlink" width="200" height="200"><defs><style type="text/css"></style></defs><path d="M115 321.1h792.8v624H115z" fill="#EB6836" p-id="1789"></path><path d="M115 321.1h792.8v103.4H115z" fill="#C74B38" p-id="1790"></path><path d="M953.4 288.4L832.3 185.1c-2.5-2.1-5.6-3.3-8.9-3.3h-59.6v-30.5c0-7.6-6.2-13.8-13.8-13.8h-34v-60c0-7.6-6.2-13.8-13.8-13.8H320.5c-7.6 0-13.8 6.2-13.8 13.8v60h-34c-7.6 0-13.8 6.2-13.8 13.8v30.5h-63.3c-3.3 0-6.6 1.2-9.1 3.4L69.2 288.6c-3 2.6-4.7 6.4-4.7 10.4v77.5c0 7.6 6.2 13.8 13.8 13.8h22.9V443c0 7.6 6.2 13.8 13.8 13.8 7.6 0 13.8-6.2 13.8-13.8v-52.6h134v48.9c0 7.6 6.2 13.8 13.8 13.8h88.1c7.6 0 13.8-6.2 13.8-13.8v-48.9h266.1v48.9c0 7.6 6.2 13.8 13.8 13.8h88.1c7.6 0 13.8-6.2 13.8-13.8v-48.9h134v540.9H128.7V516.8c0-7.6-6.2-13.8-13.8-13.8-7.6 0-13.8 6.2-13.8 13.8v428.3c0 7.6 6.2 13.8 13.8 13.8h792.8c7.6 0 13.8-6.2 13.8-13.8V390.4h22.9c7.6 0 13.8-6.2 13.8-13.8V299c0-4.1-1.7-7.9-4.8-10.6z" fill="" p-id="1791"></path><path d="M420.9 710.4c-34.8-13.9-74.5-6-101.6 21.2-28.8 28.9-35.9 73-17.8 109.6 4.1 8.3 15.5 10.2 22.1 3.6l52.2-52.5 16.9 17-52.2 52.5c-6.5 6.6-4.7 18 3.6 22.2 13.4 6.7 27.8 10 42.1 10 24.5 0 48.7-9.6 66.8-27.9 27-27.2 35-67.1 21.1-102.2l55-55.3 7.9 7.9-8.4 8.5c-3.7 3.7-5 9.2-3.3 14.2l10.4 31.3c0.7 2 1.8 3.9 3.3 5.4l92.1 92.7c8.1 8.1 18.6 12.1 29.2 12.1 10.6 0 21.1-4 29.2-12.1l18.2-18.3c7.8-7.8 12.1-18.3 12.1-29.4 0-11.1-4.3-21.5-12.1-29.4L615.5 699c-1.5-1.5-3.4-2.7-5.4-3.3L579 685.3c-4.9-1.7-10.4-0.4-14.1 3.3l-8.4 8.5-7.9-7.9 20.9-21c34.8 13.9 74.5 6 101.6-21.2 28.8-28.9 35.9-73 17.8-109.6-4.1-8.3-15.5-10.2-22.1-3.6l-52.2 52.5-16.9-17 52.2-52.5c6.5-6.6 4.7-18-3.6-22.2-36.4-18.2-80.2-11-108.9 17.9-27 27.2-35 67.1-21.1 102.2l-20.9 21-44-44.3 16.2-16.3c5.6-5.6 5.2-15-0.7-20.2l-80.5-70.5c-5.5-4.8-13.7-4.5-18.8 0.6l-36.3 36.5c-5.1 5.1-5.4 13.4-0.6 18.9l70.1 80.9c5.2 6 14.6 6.3 20.1 0.7l11-11.1 44 44.3-55 55.2z" fill="" p-id="1792"></path><path d="M688.1 811.2l-89.8-90.4-20-6.7-21 21.1 112.9 113.6 18-18.1c5.2-5.2 5.2-14.2-0.1-19.5z" fill="#F7D04A" p-id="1793"></path><path d="M554 738.6l6.7 20.1 89.8 90.4c5.4 5.4 14.1 5.4 19.5 0l0.2-0.2-112.9-113.6-3.3 3.3z" fill="#F3B41B" p-id="1794"></path><path d="M600.4 195.6c0-7.6 6.2-13.8 13.8-13.8h30.3v-30.5c0-7.6 6.2-13.8 13.8-13.8h30.3V91.3H334.3v46.2h30.3c7.6 0 13.8 6.2 13.8 13.8v30.5h147.7c7.6 0 13.8 6.2 13.8 13.8h60.5z" fill="#FFFFFF" p-id="1795"></path><path d="M526.1 209.5H242.4L140.7 299v63.7h122v-60c0-7.6 6.2-13.8 13.8-13.8h88.1c7.6 0 13.8 6.2 13.8 13.8v60h266.1v-60c0-7.6 6.2-13.8 13.8-13.8h88.1c7.6 0 13.8 6.2 13.8 13.8v60h125.7V299L781 209.5H614.1c-7.6 0-13.8-6.2-13.8-13.8h-60.6c0.1 7.6-6 13.8-13.6 13.8z" fill="#EF9D3C" p-id="1796"></path><path d="M930.7 362.7v-57.3l-112.4-95.9h-37.5l105 89.5v63.7h44.9z" fill="#FFB973" p-id="1797"></path><path d="M242.4 209.5h-41.5L92 305.3v57.4h48.7V299z" fill="#E2771E" p-id="1798"></path><path d="M670.3 569.1l-46.1 46.3c-5.4 5.4-14.1 5.4-19.5 0l-36.3-36.5c-5.3-5.3-5.3-14.2 0-19.6l46.1-46.3c-20.8-3.3-42.3 3.4-57.8 18.9-20.9 21-25.7 52.8-11.9 79.1 2.8 5.4 1.8 12-2.4 16.3L526.8 643l14.3 14.3 15.6-15.7c4.3-4.3 10.8-5.3 16.2-2.5 26.1 13.9 57.7 9.1 78.6-12 15.5-15.4 22.1-37.1 18.8-58z" fill="#E5E5E5" p-id="1799"></path><path d="M514.8 655.1l14.3 14.4 12.1-12.2-14.4-14.3z" fill="#CCCCCC" p-id="1800"></path><path d="M433.6 736.8c-4.3 4.3-10.8 5.3-16.2 2.5-26.1-13.9-57.7-9.1-78.6 12-15.4 15.5-22.1 37.2-18.8 58.1l46-46.4c5.4-5.4 14.1-5.4 19.5 0l36.3 36.5c5.4 5.4 5.4 14.2 0 19.6l-46.1 46.3c20.8 3.3 42.3-3.4 57.8-18.9 20.9-21 25.7-52.8 11.9-79.1-2.8-5.4-1.8-12 2.4-16.3l16.6-16.7-14.3-14.3-16.5 16.7z" fill="#E5E5E5" p-id="1801"></path><path d="M495.3 674.7l-45.1 45.4 14.3 14.3 45.1-45.3z" fill="#CCCCCC" p-id="1802"></path><path d="M359.8 531.9l18.2-18.3 59.6 52.3-25.8 26z" fill="#E5E5E5" p-id="1803"></path><path d="M672 346.4h60.6v79.1H672zM290.2 346.4h60.6v79.1h-60.6z" fill="#CCCCCC" p-id="1804"></path><path d="M290.2 316.5h60.6v29.8h-60.6zM672 316.5h60.6v29.8H672z" fill="#F2F2F2" p-id="1805"></path><path d="M286.6 165.2h64.2v16.6h-64.2zM672 165.2h64.2v16.6H672z" fill="#EB6836" p-id="1806"></path></svg>