<?xml version="1.0" standalone="no"?><!DOCTYPE svg PUBLIC "-//W3C//DTD SVG 1.1//EN" "http://www.w3.org/Graphics/SVG/1.1/DTD/svg11.dtd"><svg t="1510754621267" class="icon" style="" viewBox="0 0 1024 1024" version="1.1" xmlns="http://www.w3.org/2000/svg" p-id="4446" xmlns:xlink="http://www.w3.org/1999/xlink" width="200" height="200"><defs><style type="text/css"></style></defs><path d="M723.7632 771.2768 300.2368 771.2768c-46.6944 0-84.3776-38.0928-84.3776-84.3776L215.8592 337.1008c0-46.6944 38.0928-84.3776 84.3776-84.3776l156.0576 0c9.0112 0 16.384 7.3728 16.384 16.384s-7.3728 16.384-16.384 16.384L300.2368 285.4912c-28.672 0-51.6096 23.3472-51.6096 51.6096l0 349.7984c0 28.672 23.3472 51.6096 51.6096 51.6096l423.5264 0c28.672 0 51.6096-23.3472 51.6096-51.6096l0-87.2448c0-9.0112 7.3728-16.384 16.384-16.384s16.384 7.3728 16.384 16.384l0 87.2448C808.1408 733.5936 770.4576 771.2768 723.7632 771.2768z" p-id="4447"></path><path d="M445.6448 627.9168c-4.096 0-8.192-1.6384-11.4688-4.9152-6.5536-6.5536-6.5536-16.7936 0-23.3472l331.3664-331.3664c6.5536-6.5536 16.7936-6.5536 23.3472 0 6.5536 6.5536 6.5536 16.7936 0 23.3472l-331.3664 331.3664C453.8368 626.2784 449.7408 627.9168 445.6448 627.9168z" p-id="4448"></path><path d="M790.1184 287.1296l-192.9216 0c-9.0112 0-16.384-7.3728-16.384-16.384s7.3728-16.384 16.384-16.384l192.9216 0c9.0112 0 16.384 7.3728 16.384 16.384S799.1296 287.1296 790.1184 287.1296z" p-id="4449"></path><path d="M790.1184 480.0512c-9.0112 0-16.384-7.3728-16.384-16.384L773.7344 270.7456c0-9.0112 7.3728-16.384 16.384-16.384s16.384 7.3728 16.384 16.384l0 192.9216C806.5024 472.6784 799.1296 480.0512 790.1184 480.0512z" p-id="4450"></path></svg>